<svg height="512pt" viewBox="0 0 512 512" width="512pt" xmlns="http://www.w3.org/2000/svg"><path d="m267.113281 210.460938c0 6.136718-4.976562 11.113281-11.113281 11.113281s-11.113281-4.976563-11.113281-11.113281c0-6.136719 4.976562-11.113282 11.113281-11.113282s11.113281 4.976563 11.113281 11.113282zm0 0"/><path d="m267.113281 260.96875c0 6.136719-4.976562 11.113281-11.113281 11.113281s-11.113281-4.976562-11.113281-11.113281 4.976562-11.109375 11.113281-11.109375 11.113281 4.972656 11.113281 11.109375zm0 0"/><path d="m267.113281 311.476562c0 6.136719-4.976562 11.113282-11.113281 11.113282s-11.113281-4.976563-11.113281-11.113282c0-6.136718 4.976562-11.109374 11.113281-11.109374s11.113281 4.972656 11.113281 11.109374zm0 0"/><path d="m267.113281 361.984375c0 6.136719-4.976562 11.113281-11.113281 11.113281s-11.113281-4.976562-11.113281-11.113281 4.976562-11.109375 11.113281-11.109375 11.113281 4.972656 11.113281 11.109375zm0 0"/><path d="m504.5 291c4.144531 0 7.5-3.359375 7.5-7.5v-162.621094c0-10.484375-5.824219-19.910156-15.199219-24.597656l-125.144531-63.5625-29.457031-30.433594c-1.402344-1.449218-3.332031-2.2734372-5.351563-2.285156-.011718 0-.023437 0-.035156 0h-.003906-161.621094c-.003906 0-.007812 0-.015625 0s-.011719 0-.019531 0c-2.019532.0117188-3.949219.835938-5.351563 2.285156l-29.457031 30.433594-125.144531 63.5625c-9.375 4.6875-15.199219 14.113281-15.199219 24.597656v33.683594c0 4.140625 3.359375 7.5 7.5 7.5s7.5-3.359375 7.5-7.5v-33.683594c0-4.765625 2.648438-9.050781 6.910156-11.183594l58.617188-29.308593 39.789062 92.238281-42.492187 71.460938c-1.480469 2.484374-1.394531 5.601562.210937 8.003906l163.917969 244.910156h-214.453125c-6.894531 0-12.5-5.605469-12.5-12.5v-295c0-4.140625-3.359375-7.5-7.5-7.5s-7.5 3.359375-7.5 7.5v295c0 15.164062 12.335938 27.5 27.5 27.5h457c15.164062 0 27.5-12.335938 27.5-27.5v-166.0625c0-4.140625-3.355469-7.5-7.5-7.5s-7.5 3.359375-7.5 7.5v166.0625c0 6.894531-5.605469 12.5-12.5 12.5h-214.457031l163.921875-244.910156c1.605468-2.402344 1.691406-5.519532.210937-8.003906l-42.492187-71.460938 39.789062-92.238281 58.617188 29.308593c4.261718 2.132813 6.910156 6.417969 6.910156 11.183594v162.621094c0 4.140625 3.355469 7.5 7.5 7.5zm-342.019531-190.550781c0-2.125.492187-4.117188 1.476562-5.957031 1.578125-2.976563 4.347657-5.25 7.570313-6.230469 2.28125-.683594 4.625-.710938 6.964844-.082031l40.140624 10.84375c-.285156 1.402343-.4375 2.851562-.4375 4.335937v32.324219c0 1.488281.152344 2.9375.4375 4.339844l-40.15625 10.839843c-1.429687.390625-2.890624.527344-4.347656.402344-.035156-.003906-.066406-.003906-.101562-.007813-6.480469-.574218-11.546875-6.121093-11.546875-12.660156zm93.519531-21.800781-62.863281-63.648438h125.722656zm16.164062 18.070312c3.660157 0 6.640626 2.976562 6.640626 6.640625v32.324219c0 3.664062-2.980469 6.640625-6.640626 6.640625h-32.328124c-3.660157 0-6.640626-2.976563-6.640626-6.640625v-32.324219c0-3.664063 2.980469-6.640625 6.640626-6.640625zm-44.953124 56.527344c3.558593 2.5625 7.917968 4.082031 12.628906 4.082031h8.660156v16.671875c0 4.140625 3.359375 7.5 7.5 7.5 4.144531 0 7.5-3.359375 7.5-7.5v-16.671875h8.664062c4.710938 0 9.070313-1.519531 12.625-4.082031l44.449219 11.996094-73.238281 306.941406-73.238281-306.941406zm110.761718-1.988282c-.03125.003907-.066406.007813-.101562.007813-1.457032.121094-2.921875-.011719-4.367188-.40625l-40.136718-10.835937c.285156-1.402344.4375-2.851563.4375-4.339844v-32.324219c0-1.484375-.152344-2.933594-.4375-4.335937l40.132812-10.839844c2.34375-.632813 4.6875-.605469 6.949219.074218 3.246093.984376 6.015625 3.257813 7.609375 6.265626.96875 1.808593 1.460937 3.800781 1.460937 5.925781v38.152343c0 6.539063-5.066406 12.082032-11.546875 12.65625zm19.8125-111.296874-19.03125 32.847656c-3.058594-.207032-6.152344.082031-9.160156.890625l-44.796875 12.105469c-3.097656-2.238282-6.808594-3.671876-10.828125-4.007813l62.785156-63.570313zm-182.539062-21.730469 62.78125 63.570312c-4.015625.332031-7.722656 1.765625-10.824219 4.003907l-44.800781-12.105469c-3.003906-.8125-6.097656-1.097657-9.15625-.890625l-19.03125-32.847656zm-82.109375 229.453125 42.03125-70.679688c1.226562-2.066406 1.390625-4.597656.4375-6.804687l-41.675781-96.617188 45.878906-23.699219 9.628906 40.335938c-1.28125 3.226562-1.957031 6.710938-1.957031 10.230469v38.152343c0 12.386719 8.359375 23.132813 19.839843 26.5625l71.699219 300.480469zm283.257812-77.484375c-.953125 2.207031-.789062 4.738281.441407 6.804687l42.027343 70.679688-145.882812 217.960937 71.699219-300.480469c11.480468-3.429687 19.839843-14.175781 19.839843-26.5625v-38.152343c0-3.570313-.699219-7.101563-2.007812-10.355469.121093-.3125 9.679687-40.210938 9.679687-40.210938l45.882813 23.699219zm0 0"/><path d="m367.117188 372.75c-4.140626 0-7.5 3.359375-7.5 7.5v30.304688c0 4.140624 3.359374 7.5 7.5 7.5h111.21875c4.144531 0 7.5-3.359376 7.5-7.5v-30.304688c0-4.140625-3.355469-7.5-7.5-7.5zm103.71875 30.304688h-96.21875v-15.304688h96.21875zm0 0"/></svg>